/* XPM */
static char * export_xpm[] = {
"24 24 7 1",
" 	c #E5F0FF",
".	c #FFFFFF",
"+	c #168600",
"@	c #D9EED9",
"#	c #000000",
"$	c #FF0000",
"%	c #F9DFDE",
" .......................",
" .............+++.......",
" ..........+++++++++++..",
" .......+++++++++....+..",
" .......+.+.+++++@.@.+..",
" .......+.+.+++++....+..",
" .......++.++++++@.@.+..",
" .......+.+.+++++....+..",
" .......+.+.+++++@.@.+..",
" .......+++++++++....+..",
" .#........+++++++++++..",
" .#...........+++.......",
" .#.....................",
" .#.......$$$...........",
" .#......$%.$...........",
" .#.....$%..$...........",
" .#....$%...$...........",
" .#...$%....$...........",
" .#..$%.....$...........",
" .#.$%......$...........",
" .#$%.......$...........",
" .###############.......",
" .......................",
"                        "};
