/* XPM */
static char * compute_xpm[] = {
"24 24 147 2",
"  	c None",
". 	c #2E8DCD",
"+ 	c #2C8BCB",
"@ 	c #519FD4",
"# 	c #E8F2F9",
"$ 	c #FFFFFF",
"% 	c #C1DDF0",
"& 	c #2D8BCC",
"* 	c #2B89C9",
"= 	c #F1F8FC",
"- 	c #FBFEFF",
"; 	c #FCFEFF",
"> 	c #FDFEFF",
", 	c #FCFFFF",
"' 	c #FAFCFE",
") 	c #2B88C9",
"! 	c #2986C7",
"~ 	c #FAFDFF",
"{ 	c #01590B",
"] 	c #028512",
"^ 	c #028713",
"/ 	c #028612",
"( 	c #018210",
"_ 	c #F9FDFF",
": 	c #2A86C6",
"< 	c #2882C5",
"[ 	c #F6FCFF",
"} 	c #028012",
"| 	c #1ABE2C",
"1 	c #1ABE2D",
"2 	c #1BBF2E",
"3 	c #19BD2C",
"4 	c #47DC53",
"5 	c #A5FFAA",
"6 	c #F6FBFF",
"7 	c #F5FCFF",
"8 	c #2982C4",
"9 	c #277FC1",
"0 	c #F2FBFF",
"a 	c #F2FAFF",
"b 	c #02770F",
"c 	c #00B419",
"d 	c #00B51A",
"e 	c #00B318",
"f 	c #3DD44A",
"g 	c #9FFFA7",
"h 	c #5FF26B",
"i 	c #F1FAFF",
"j 	c #267EC2",
"k 	c #247BBE",
"l 	c #EDF9FF",
"m 	c #EEF8FF",
"n 	c #026C0D",
"o 	c #02A017",
"p 	c #02A118",
"q 	c #02A018",
"r 	c #029F17",
"s 	c #029E16",
"t 	c #2FCA3C",
"u 	c #94FF9D",
"v 	c #57EC63",
"w 	c #029C14",
"x 	c #EEF9FF",
"y 	c #247ABE",
"z 	c #2277BB",
"A 	c #E8F7FF",
"B 	c #E9F7FF",
"C 	c #025F0C",
"D 	c #029013",
"E 	c #029214",
"F 	c #24C332",
"G 	c #8BFF92",
"H 	c #4CE757",
"I 	c #018B10",
"J 	c #018C11",
"K 	c #1F73B7",
"L 	c #E4F5FF",
"M 	c #E3F5FF",
"N 	c #E3F6FF",
"O 	c #2072B8",
"P 	c #1E6EB3",
"Q 	c #DEF4FF",
"R 	c #DFF3FF",
"S 	c #DFF4FF",
"T 	c #DEF3FF",
"U 	c #1D6EB3",
"V 	c #1B69B0",
"W 	c #D9F1FF",
"X 	c #D9F2FF",
"Y 	c #003788",
"Z 	c #1A69B0",
"` 	c #1864AC",
" .	c #D4EFFF",
"..	c #D3F0FF",
"+.	c #D3EFFF",
"@.	c #1865AC",
"#.	c #1660A9",
"$.	c #CEEEFF",
"%.	c #CEEDFF",
"&.	c #1660A8",
"*.	c #145BA4",
"=.	c #C9ECFF",
"-.	c #C8EBFF",
";.	c #C8ECFF",
">.	c #145BA5",
",.	c #1157A1",
"'.	c #C3EAFF",
").	c #C3E9FF",
"!.	c #1156A1",
"~.	c #0E529D",
"{.	c #BDE7FF",
"].	c #BEE7FF",
"^.	c #BDE8FF",
"/.	c #BEE8FF",
"(.	c #0E529E",
"_.	c #0C4E9A",
":.	c #B8E6FF",
"<.	c #B9E6FF",
"[.	c #B8E5FF",
"}.	c #0D4D9A",
"|.	c #0A4A97",
"1.	c #B3E4FF",
"2.	c #B4E4FF",
"3.	c #084694",
"4.	c #AEE2FF",
"5.	c #AFE2FF",
"6.	c #AEE3FF",
"7.	c #084594",
"8.	c #064191",
"9.	c #AAE1FF",
"0.	c #AAE0FF",
"a.	c #064290",
"b.	c #053F8E",
"c.	c #A6DFFF",
"d.	c #A6E0FF",
"e.	c #043F8E",
"f.	c #033C8B",
"g.	c #A3DEFF",
"h.	c #A2DEFF",
"i.	c #033B8C",
"j.	c #013989",
"k.	c #659FD3",
"l.	c #9DDAFD",
"m.	c #A0DDFF",
"n.	c #9FDDFF",
"o.	c #9FDCFF",
"p.	c #71ADDD",
"          . . . . . . . . . . . . . . .         ",
"        + @ # $ $ $ $ $ $ $ $ $ $ $ % &         ",
"        * = - ; ; > ; , > ; ; > ; ; ' )         ",
"        ! ~ ~ { ] ^ / ^ / ] / ] ( ~ _ :         ",
"        < [ [ } | 1 2 1 | 3 3 4 5 6 7 8         ",
"        9 0 a b c d d d e e f g h 0 i j         ",
"        k l m n o p q r s t u v w x m y         ",
"        z A B C D E E D F G H I J B B z         ",
"        K L L L M M M L N L L L L M L O         ",
"        P Q R S R R R T T T R R Q R Q U         ",
"        V W X Y Y W W Y Y W W Y Y W W Z         ",
"        `  . .Y Y ..+.Y Y  ...Y Y +. .@.        ",
"        #.$.%.$.%.%.$.$.%.$.%.%.%.$.$.&.        ",
"        *.=.-.Y Y -.=.Y Y -.;.Y Y =.;.>.        ",
"        ,.'.'.Y Y ).).Y Y '.).Y Y ).'.!.        ",
"        ~.{.].^.^././.{./.{.{./.{.].].(.        ",
"        _.:.<.Y Y :.<.Y Y :.<.Y Y :.[.}.        ",
"        |.1.1.Y Y 1.2.Y Y 1.2.Y Y 1.1.|.        ",
"        3.4.4.4.5.4.5.6.5.4.4.5.5.4.5.7.        ",
"        8.9.9.Y Y 0.9.Y Y 0.9.Y Y 9.9.a.        ",
"        b.c.c.Y Y c.d.Y Y c.d.Y Y c.c.e.        ",
"        f.g.h.h.g.h.g.g.h.g.g.h.h.g.g.i.        ",
"        j.k.l.m.n.m.o.n.n.n.m.m.m.m.p.j.        ",
"          Y Y Y Y Y Y Y Y Y Y Y Y Y Y Y         "};
