/* XPM */
static char * geom_xpm[] = {
"24 24 4 1",
" 	c None",
".	c #000000",
"+	c #EDD26D",
"@	c #AA0000",
".................       ",
".+++++++++++++++.       ",
".+++++++++++++++.       ",
".+++++++++++++++.       ",
".+++++++++++++++.       ",
".+++++++++++++++.       ",
".+++++++++++++++.       ",
".+++++++++++++++.       ",
".+++++++++++++++.       ",
".................       ",
"      .@@@@@@@@@.       ",
"      .@@@@@@@@@.       ",
"      .@@@@@@@@@.       ",
"      .@@@@@@@@@.       ",
"      ..................",
"      .++++++++++++++++.",
"      .++++++++++++++++.",
"      .++++++++++++++++.",
"      .++++++++++++++++.",
"      .++++++++++++++++.",
"      .++++++++++++++++.",
"      .++++++++++++++++.",
"      .++++++++++++++++.",
"      .................."};
