/* XPM */
static char * material_xpm[] = {
"24 24 9 1",
" 	c #E5F0FF",
".	c #FFFFFF",
"+	c #038B00",
"@	c #D9EED9",
"#	c #D6261F",
"$	c #F9DFDE",
"%	c #B7351A",
"&	c #DAE4F1",
"*	c #04479E",
" .......................",
" .......................",
" .......................",
" .+@....................",
" ..+@...###############.",
" ...+@.#$...............",
" ....+%$................",
" ....#+@................",
" ...#$.+@...............",
" ..#$...+@....&.........",
" .#$.....+@..&*&......@.",
" .$.......+@&*.*&....@+.",
" ..........+*...*&..@+..",
" .........&*+@...*&@+...",
" ........&*..+@...*+....",
" .......&*....+@.@+*&...",
" ......&*......+@+..*&..",
" .....&*........+....*&.",
" ....&*...............*.",
" ...&*..................",
" ..&*...................",
" ..*....................",
" .......................",
"                        "};
