/* XPM */
static char * mesh_xpm[] = {
"24 24 4 1",
" 	c None",
".	c #000000",
"+	c #A9BFE3",
"@	c #484848",
"................        ",
".++@++@++@++@++.        ",
".++@++@++@++@++.        ",
".@@@@@@@@@@@@@@.        ",
".++@++@++@++@++.        ",
".++@++@++@++@++.        ",
".@@@@@@@@@@@@@@.        ",
".++@++@++@++@++.        ",
".++@++@++@++@++.        ",
"................        ",
"        ........        ",
"        .+@++@+.        ",
"        .+@++@+.        ",
"        ........        ",
"        ................",
"        .++@++@++@++@++.",
"        .++@++@++@++@++.",
"        .@@@@@@@@@@@@@@.",
"        .++@++@++@++@++.",
"        .++@++@++@++@++.",
"        .@@@@@@@@@@@@@@.",
"        .++@++@++@++@++.",
"        .++@++@++@++@++.",
"        ................"};
