/* XPM */
static char * sim_xpm[] = {
"24 24 258 2",
"  	c None",
". 	c #134AA4",
"+ 	c #1449A4",
"@ 	c #144AA4",
"# 	c #1349A4",
"$ 	c #154DA6",
"% 	c #FCFEFF",
"& 	c #FCFFFF",
"* 	c #FDFEFF",
"= 	c #FDFFFF",
"- 	c #1751AA",
"; 	c #F9FDFF",
"> 	c #3EA6E5",
", 	c #1752A9",
"' 	c #1A57AD",
") 	c #F5FCFF",
"! 	c #3CA1E2",
"~ 	c #4B90D0",
"{ 	c #599AD7",
"] 	c #84B5E4",
"^ 	c #B3D2F0",
"/ 	c #D3E6F7",
"( 	c #B7D6F4",
"_ 	c #90C1EF",
": 	c #6AABE8",
"< 	c #60A3E4",
"[ 	c #5B9FDF",
"} 	c #569ADA",
"| 	c #5094D5",
"1 	c #4A8FCF",
"2 	c #4489C9",
"3 	c #3E83C3",
"4 	c #387EBE",
"5 	c #3278B8",
"6 	c #2D74B4",
"7 	c #3CA1E1",
"8 	c #F6FCFF",
"9 	c #1957AD",
"0 	c #1C5BB1",
"a 	c #F1FBFF",
"b 	c #399ADD",
"c 	c #4C90D1",
"d 	c #65A2DB",
"e 	c #94C0E9",
"f 	c #C0DAF3",
"g 	c #CCE2F7",
"h 	c #AACFF2",
"i 	c #84B9ED",
"j 	c #63A6E6",
"k 	c #5FA2E2",
"l 	c #5A9EDE",
"m 	c #5499D9",
"n 	c #4E93D4",
"o 	c #498DCE",
"p 	c #4387C8",
"q 	c #3C82C2",
"r 	c #367CBD",
"s 	c #3177B7",
"t 	c #2C72B3",
"u 	c #399BDC",
"v 	c #1E61B4",
"w 	c #ECFAFF",
"x 	c #3593D8",
"y 	c #4E92D3",
"z 	c #73ABDF",
"A 	c #A4C9EC",
"B 	c #CBE1F6",
"C 	c #C2DCF5",
"D 	c #9DC8F1",
"E 	c #76B2EB",
"F 	c #5DA1E1",
"G 	c #599DDD",
"H 	c #5398D8",
"I 	c #4D92D2",
"J 	c #488CCC",
"K 	c #4187C6",
"L 	c #3B80C1",
"M 	c #357BBB",
"N 	c #3077B7",
"O 	c #2B71B2",
"P 	c #3592D7",
"Q 	c #1E62B4",
"R 	c #2167B9",
"S 	c #E6F8FF",
"T 	c #318AD1",
"U 	c #5798D6",
"V 	c #82B5E3",
"W 	c #B2D2F0",
"X 	c #D2E5F7",
"Y 	c #B6D6F3",
"Z 	c #90C1F0",
"` 	c #6CACE9",
" .	c #61A4E4",
"..	c #5DA1E0",
"+.	c #589CDC",
"@.	c #5296D6",
"#.	c #4C90D0",
"$.	c #458BCB",
"%.	c #3F85C5",
"&.	c #397FBF",
"*.	c #347ABA",
"=.	c #2E75B6",
"-.	c #2A71B1",
";.	c #E7F8FF",
">.	c #246DBD",
",.	c #E1F6FF",
"'.	c #2C80CB",
").	c #64A1DA",
"!.	c #93BEE7",
"~.	c #BFDAF3",
"{.	c #84BAEE",
"].	c #64A7E7",
"^.	c #60A4E4",
"/.	c #5C9FDF",
"(.	c #579ADA",
"_.	c #5095D5",
":.	c #458AC9",
"<.	c #3E84C4",
"[.	c #3379B9",
"}.	c #2E74B5",
"|.	c #2A70B0",
"1.	c #2C80CA",
"2.	c #E1F7FF",
"3.	c #246EBD",
"4.	c #2773C1",
"5.	c #DCF5FF",
"6.	c #2877C3",
"7.	c #73AADE",
"8.	c #A3C8EC",
"9.	c #CAE0F5",
"0.	c #9DC7F0",
"a.	c #77B2EC",
"b.	c #5FA3E3",
"c.	c #5599D9",
"d.	c #4F94D3",
"e.	c #4388C9",
"f.	c #3D82C3",
"g.	c #377DBD",
"h.	c #3178B8",
"i.	c #2C73B3",
"j.	c #286FB0",
"k.	c #2673C2",
"l.	c #297AC6",
"m.	c #D6F3FF",
"n.	c #236DBD",
"o.	c #82B3E3",
"p.	c #B2D1EF",
"q.	c #B6D5F3",
"r.	c #8FC0EF",
"s.	c #6DADEA",
"t.	c #63A5E5",
"u.	c #5EA2E2",
"v.	c #5498D8",
"w.	c #4D93D2",
"x.	c #478DCD",
"y.	c #4287C7",
"z.	c #3C81C1",
"A.	c #357BBC",
"B.	c #3076B7",
"C.	c #2C72B2",
"D.	c #276EAE",
"E.	c #236DBC",
"F.	c #2A7AC6",
"G.	c #D1F1FF",
"H.	c #1F63B6",
"I.	c #92BDE7",
"J.	c #BFD9F2",
"K.	c #A9CEF1",
"L.	c #65A9E8",
"M.	c #579BDB",
"N.	c #5297D7",
"O.	c #4C91D1",
"P.	c #468BCB",
"Q.	c #4186C5",
"R.	c #3A80C0",
"S.	c #347ABB",
"T.	c #2F75B5",
"U.	c #2A72B2",
"V.	c #266DAD",
"W.	c #2F86CE",
"X.	c #CBF0FF",
"Y.	c #1B5AB0",
"Z.	c #A2C7EB",
"`.	c #C1DBF4",
" +	c #9BC7F0",
".+	c #77B3EB",
"++	c #65A8E8",
"@+	c #5196D6",
"#+	c #458ACA",
"$+	c #3E84C5",
"%+	c #387FBF",
"&+	c #2970B1",
"*+	c #266CAD",
"=+	c #1B5AAF",
"-+	c #328CD2",
";+	c #C6EFFF",
">+	c #1753AA",
",+	c #B1D0EE",
"'+	c #D2E5F6",
")+	c #B5D5F2",
"!+	c #8EBFED",
"~+	c #6EAEEB",
"{+	c #63A7E7",
"]+	c #60A3E3",
"^+	c #5A9FDF",
"/+	c #5699DA",
"(+	c #5094D4",
"_+	c #498ECE",
":+	c #3D83C3",
"<+	c #377DBE",
"[+	c #2D74B3",
"}+	c #296FB0",
"|+	c #256CAC",
"1+	c #1852AA",
"2+	c #C6EEFF",
"3+	c #328CD3",
"4+	c #3591D7",
"5+	c #C2EDFF",
"6+	c #144CA5",
"7+	c #144CA6",
"8+	c #154CA5",
"9+	c #144BA5",
"0+	c #C1ECFF",
"a+	c #3591D6",
"b+	c #3796DA",
"c+	c #BDEBFF",
"d+	c #BDECFF",
"e+	c #BCEBFF",
"f+	c #3797DA",
"g+	c #399BDE",
"h+	c #B9EAFF",
"i+	c #B8EAFF",
"j+	c #B9EBFF",
"k+	c #3BA0E0",
"l+	c #B5E9FF",
"m+	c #B6E9FF",
"n+	c #B6EAFF",
"o+	c #B5EAFF",
"p+	c #3DA3E3",
"q+	c #3CA4E3",
"r+	c #3CA3E3",
"s+	c #3899DC",
"t+	c #3DA3E2",
"u+	c #1D5AAF",
"v+	c #C9DCF0",
"w+	c #ADC7E5",
"x+	c #1A58AE",
"y+	c #669CD4",
"z+	c #DFF6FF",
"A+	c #DFF5FF",
"B+	c #4988C9",
"C+	c #246CBC",
"D+	c #2E83CD",
"E+	c #95CBEE",
"F+	c #A8D9F5",
"G+	c #A8DAF5",
"H+	c #7FBCE7",
"I+	c #2F84CC",
"                                                ",
". + . . @ . . # @ . @ . . @ @ . @ # . . @ . @ @ ",
"$ % & % * & % % = = % & * % * % * % * % % * & $ ",
"- ; > > > > > > > > > > > > > > > > > > > > ; , ",
"' ) ! ~ { ] ^ / ( _ : < [ } | 1 2 3 4 5 6 7 8 9 ",
"0 a b c d e f g h i j k l m n o p q r s t u a 0 ",
"v w x y z A B C D E j F G H I J K L M N O P w Q ",
"R S T U V W X Y Z `  ...+.@.#.$.%.&.*.=.-.T ;.R ",
">.,.'.).!.~.B h {.].^./.(._.1 :.<.4 [.}.|.1.2.3.",
"4.5.6.7.8.9.C 0.a.j b.l c.d.o e.f.g.h.i.j.6.5.k.",
"l.m.n.o.p.X q.r.s.t.u.G v.w.x.y.z.A.B.C.D.E.m.F.",
"1.G.H.I.J.B K.i L. .F M.N.O.P.Q.R.S.T.U.V.H.G.1.",
"W.X.Y.Z.9.`. +.+++ ./.M.@+~ #+$+%+[.}.&+*+=+X.W.",
"-+;+>+,+'+)+!+~+{+]+^+/+(+_+e.:+<+5 [+}+|+1+2+3+",
"4+5+6+6+6+7+6+7+7+8+6+6+6+9+6+7+8+8+8+7+9+6+0+a+",
"b+c+c+c+d+c+d+d+c+c+d+d+d+c+d+d+c+e+d+d+e+d+d+f+",
"g+h+i+h+h+h+h+h+h+h+h+g+g+h+j+h+h+j+j+j+h+j+j+g+",
"k+l+m+m+n+n+m+l+n+m+n+n+o+l+m+l+l+n+m+m+l+o+l+k+",
"p+p+q+p+p+r+r+r+p+p+s+r+p+p+t+p+p+p+p+p+p+p+p+p+",
"                    @ @ @ @                     ",
"                  u+v+a a w+x+                  ",
"                >.y+z+A+z+A+B+C+                ",
"                D+E+F+F+F+G+H+I+                ",
"                                                "};
