/* XPM */
static char * sim_results_xpm[] = {
"24 24 9 1",
" 	c None",
".	c #000000",
"+	c #2316E6",
"@	c #238CE6",
"#	c #16E600",
"$	c #FFFF00",
"%	c #FF8600",
"&	c #FF0000",
"*	c #A9BFE3",
".................       ",
".+++++++++++++++.       ",
".+++++++++++++++.       ",
".+++++++++++++++.       ",
".+@@@@@@@@@@@+++.       ",
".+@@@@@@@@@@@+++.       ",
".+#########@@+++.       ",
".+#$$$$$$$#@@+++.       ",
".+#$$%&%$$#@@+++.       ",
".................       ",
"      .**+++++++.       ",
"      .*++++++++.       ",
"      .++++++++*.       ",
"      .+++++++**.       ",
"      ..................",
"      .+++@@#$$%&%$$#++.",
"      .+++@@#$$$$$$$#++.",
"      .+++@@#########++.",
"      .+++@@@@@@@@@@@++.",
"      .+++@@@@@@@@@@@++.",
"      .++++++++++++++++.",
"      .++++++++++++++++.",
"      .++++++++++++++++.",
"      .................."};
